<svg xmlns="http://www.w3.org/2000/svg" viewBox="0 0 512 512" role="img" aria-labelledby="title">
  <title>rLive</title>
  <defs>
    <linearGradient id="surface" x1="88" y1="56" x2="428" y2="468" gradientUnits="userSpaceOnUse">
      <stop stop-color="#1D2A4A"/>
      <stop offset="1" stop-color="#0B1020"/>
    </linearGradient>
    <linearGradient id="screen" x1="122" y1="142" x2="390" y2="370" gradientUnits="userSpaceOnUse">
      <stop stop-color="#38DDF0"/>
      <stop offset=".52" stop-color="#6285FF"/>
      <stop offset="1" stop-color="#A56BFF"/>
    </linearGradient>
    <linearGradient id="play" x1="220" y1="194" x2="304" y2="325" gradientUnits="userSpaceOnUse">
      <stop stop-color="#FFFFFF"/>
      <stop offset="1" stop-color="#DCE6FF"/>
    </linearGradient>
    <filter id="glow" x="-35%" y="-35%" width="170%" height="170%">
      <feGaussianBlur stdDeviation="12" result="blur"/>
      <feMerge>
        <feMergeNode in="blur"/>
        <feMergeNode in="SourceGraphic"/>
      </feMerge>
    </filter>
  </defs>
  <rect width="512" height="512" rx="128" fill="url(#surface)"/>
  <path d="M96 167c0-30.376 24.624-55 55-55h210c30.376 0 55 24.624 55 55v178c0 30.376-24.624 55-55 55H151c-30.376 0-55-24.624-55-55V167Z" fill="#111A30" stroke="url(#screen)" stroke-width="20"/>
  <path d="M210 188.72c0-14.116 15.472-22.798 27.542-15.45l96.726 58.875c11.513 7.008 11.513 23.702 0 30.71l-96.726 58.875C225.472 329.078 210 320.396 210 306.28V188.72Z" fill="url(#play)" filter="url(#glow)"/>
  <path d="M164 434h184" stroke="#4E648F" stroke-width="18" stroke-linecap="round"/>
  <path d="M210 434h92" stroke="url(#screen)" stroke-width="18" stroke-linecap="round"/>
</svg>
