<svg xmlns="http://www.w3.org/2000/svg" width="512" height="512" viewBox="0 0 512 512" role="img" aria-labelledby="rlive-icon-title">
<title id="rlive-icon-title">rLive</title>
<defs>
<linearGradient id="b-bg" x1="0" y1="0" x2="512" y2="512" gradientUnits="userSpaceOnUse">
<stop stop-color="#1B2A52"/>
<stop offset="1" stop-color="#080C1A"/>
</linearGradient>
<radialGradient id="b-glow" cx="256" cy="256" r="215.04" gradientUnits="userSpaceOnUse">
<stop stop-color="#3E6BFF" stop-opacity=".3"/>
<stop offset="1" stop-color="#3E6BFF" stop-opacity="0"/>
</radialGradient>
<linearGradient id="m-ring" x1="116" y1="116" x2="396" y2="396" gradientUnits="userSpaceOnUse">
<stop stop-color="#3EE0F2"/>
<stop offset=".5" stop-color="#5F86FF"/>
<stop offset="1" stop-color="#A96BFF"/>
</linearGradient>
<linearGradient id="m-disc" x1="136" y1="136" x2="376" y2="376" gradientUnits="userSpaceOnUse">
<stop stop-color="#141F3C"/>
<stop offset="1" stop-color="#0A0F1F"/>
</linearGradient>
<linearGradient id="m-play" x1="196" y1="172" x2="316" y2="340" gradientUnits="userSpaceOnUse">
<stop stop-color="#FFFFFF"/>
<stop offset="1" stop-color="#D9E4FF"/>
</linearGradient>
<linearGradient id="m-live" x1="350.016" y1="127.984" x2="384.016" y2="161.984" gradientUnits="userSpaceOnUse">
<stop stop-color="#FF7A93"/>
<stop offset="1" stop-color="#FF3355"/>
</linearGradient>
</defs>
<rect width="512" height="512" rx="113" fill="url(#b-bg)"/>
<rect width="512" height="512" rx="113" fill="url(#b-glow)"/>
<path d="M112,256 a144,144 0 1 0 288,0 a144,144 0 1 0 -288,0Z" fill="url(#m-disc)"/>
<path d="M401.568,197.187 A157,157 0 1 1 314.813,110.432" fill="none" stroke="url(#m-ring)" stroke-width="26" stroke-linecap="round"/>
<path d="M185,172 L185,340 L335,256Z" fill="url(#m-play)" stroke="url(#m-play)" stroke-width="22" stroke-linejoin="round"/>
<path d="M350.016,144.984 a17,17 0 1 0 34,0 a17,17 0 1 0 -34,0Z" fill="url(#m-live)"/>
</svg>
